<?xml version="1.0" encoding="UTF-8"?>
<svg id="Layer_1" data-name="Layer 1" xmlns="http://www.w3.org/2000/svg" viewBox="0 0 173.71 64.13">
  <defs>
    <style>
      .cls-1 {
        fill: #0ead65;
        fill-rule: evenodd;
      }

      .cls-1, .cls-2 {
        stroke-width: 0px;
      }

      .cls-2 {
        fill: #002070;
      }
    </style>
  </defs>
  <path class="cls-1" d="M29.32,3.94H0v58.59h29.32c16.17,0,29.27-13.11,29.27-29.27v-.04c0-16.17-13.11-29.27-29.27-29.27ZM27.22,45.9c.23-12.66-10.69-14.77-10.69-14.77,0,0,10.57,1.11,14.33-12.56,0,0,.37,12.28,11.2,12.56-12.08,1.81-14.84,14.77-14.84,14.77Z"/>
  <g>
    <path class="cls-2" d="M77.12,9.03c2.98,0,5.84,1.39,7.4,3.51V1.8h5.8v30.24h-5.8v-3.35c-1.35,2.08-3.88,3.72-7.44,3.72-5.76,0-10.34-4.7-10.34-11.77s4.58-11.6,10.38-11.6ZM78.55,14.06c-3.06,0-5.97,2.29-5.97,6.58s2.9,6.74,5.97,6.74,6.01-2.37,6.01-6.66-2.86-6.66-6.01-6.66Z"/>
    <path class="cls-2" d="M93.39,3.35c0-1.88,1.47-3.35,3.51-3.35s3.51,1.47,3.51,3.35-1.51,3.35-3.51,3.35-3.51-1.47-3.51-3.35ZM94,9.4h5.72v22.64h-5.72V9.4Z"/>
    <path class="cls-2" d="M113.49,32.4c-6.54,0-11.48-4.58-11.48-11.69s5.11-11.69,11.64-11.69,11.65,4.54,11.65,11.69-5.23,11.69-11.81,11.69ZM113.49,27.42c3.02,0,5.92-2.21,5.92-6.7s-2.82-6.7-5.84-6.7-5.76,2.16-5.76,6.7,2.62,6.7,5.68,6.7Z"/>
    <path class="cls-2" d="M143.44,19.53c0-3.64-2-5.6-5.03-5.6s-5.11,1.96-5.11,5.6v12.5h-5.72V9.4h5.72v2.82c1.47-1.92,3.92-3.15,6.82-3.15,5.27,0,9.03,3.43,9.03,9.68v13.28h-5.72v-12.5Z"/>
    <path class="cls-2" d="M162.56,32.4c-6.58,0-11.36-4.58-11.36-11.69s4.66-11.69,11.36-11.69,11.15,4.45,11.15,11.2c0,.74-.04,1.47-.16,2.21h-16.55c.29,3.35,2.57,5.23,5.43,5.23,2.45,0,3.8-1.23,4.54-2.74h6.17c-1.23,4.17-4.98,7.48-10.58,7.48ZM157.04,18.59h10.75c-.08-2.98-2.45-4.86-5.39-4.86-2.74,0-4.9,1.76-5.35,4.86Z"/>
    <path class="cls-2" d="M81.78,41.74c.08-1.84-1.02-2.78-2.53-2.78s-2.66,1.02-2.66,2.41.82,2.62,2.62,4.49l7.19,7.11c.08-.08.12-.2.2-.33l2.33-3.88h5.97l-2.86,5.03c-.57,1.1-1.14,2.08-1.76,3.02l6.91,6.82h-7.03l-3.11-3.06c-2.66,2.37-5.8,3.55-9.68,3.55-6.37,0-10.54-3.43-10.54-8.74,0-3.68,2.08-6.82,6.29-8.7-1.51-1.84-2.08-3.39-2.08-5.27,0-3.88,3.15-6.91,8.38-6.91s8.13,3.31,7.93,7.23h-5.56ZM83.46,57.02l-7.03-6.95c-2.7,1.19-3.96,2.9-3.96,4.99,0,2.41,1.96,4.33,5.07,4.33,2.33,0,4.25-.82,5.92-2.37Z"/>
    <path class="cls-2" d="M107.81,40.64c5.64,0,9.44,2.94,10.66,8.01h-6.17c-.65-1.92-2.17-3.15-4.54-3.15-3.19,0-5.31,2.41-5.31,6.82s2.12,6.78,5.31,6.78c2.37,0,3.84-1.06,4.54-3.11h6.17c-1.23,4.82-5.03,8.01-10.66,8.01-6.54,0-11.2-4.58-11.2-11.69s4.66-11.69,11.2-11.69Z"/>
    <path class="cls-2" d="M130.81,64.01c-6.54,0-11.48-4.58-11.48-11.69s5.11-11.69,11.64-11.69,11.65,4.54,11.65,11.69-5.23,11.69-11.81,11.69ZM130.81,59.02c3.02,0,5.92-2.21,5.92-6.7s-2.82-6.7-5.84-6.7-5.76,2.16-5.76,6.7,2.62,6.7,5.68,6.7Z"/>
    <path class="cls-2" d="M147.44,63.93c-2.08,0-3.55-1.47-3.55-3.35s1.47-3.35,3.55-3.35,3.47,1.47,3.47,3.35-1.47,3.35-3.47,3.35Z"/>
  </g>
</svg>